<svg width="100.000000" height="100.000000" viewBox="0 0 100 100" fill="none" xmlns="http://www.w3.org/2000/svg" xmlns:xlink="http://www.w3.org/1999/xlink">
	<desc>
			Created with Pixso.
	</desc>
	<defs/>
	<path id="Vector" d="M50 0C22.38 0 0 22.38 0 50C0 77.61 22.38 100 50 100C77.61 100 100 77.61 100 50C100 22.38 77.61 0 50 0ZM67.28 52.65L42.28 68.27C41.77 68.59 41.2 68.75 40.62 68.75C40.1 68.75 39.58 68.62 39.1 68.35C38.11 67.8 37.5 66.76 37.5 65.62L37.5 34.37C37.5 33.23 38.11 32.19 39.1 31.64C40.1 31.08 41.31 31.12 42.28 31.72L67.28 47.34C68.19 47.92 68.75 48.92 68.75 50C68.75 51.07 68.19 52.07 67.28 52.65Z" fill="#FFFFFF" fill-opacity="1.000000" fill-rule="nonzero"/>
</svg>
